<?xml version="1.0" standalone="no"?>
<!DOCTYPE svg PUBLIC "-//W3C//DTD SVG 20010904//EN"
 "http://www.w3.org/TR/2001/REC-SVG-20010904/DTD/svg10.dtd">
<svg version="1.0" xmlns="http://www.w3.org/2000/svg"
 width="1280.000000pt" height="966.000000pt" viewBox="0 0 1280.000000 966.000000"
 preserveAspectRatio="xMidYMid meet">
<g transform="translate(0.000000,966.000000) scale(0.100000,-0.100000)"
fill="#000000" stroke="none">
<path d="M12020 9638 c-269 -49 -430 -133 -599 -314 -128 -138 -220 -295 -263
-453 -17 -60 -21 -107 -22 -226 -1 -191 15 -276 125 -665 79 -277 102 -403
102 -555 0 -140 -14 -219 -57 -325 -56 -137 -212 -331 -344 -428 -103 -76
-189 -122 -422 -227 -338 -152 -458 -225 -846 -512 -321 -239 -398 -285 -572
-343 -198 -66 -440 -74 -972 -30 -402 33 -531 40 -745 40 -621 0 -1328 -99
-2045 -288 l-215 -56 -210 0 c-179 0 -237 4 -390 28 -99 15 -243 30 -320 33
-180 7 -276 -12 -539 -106 -381 -136 -480 -143 -1031 -76 -230 28 -311 35
-505 45 -203 10 -298 27 -421 73 -150 56 -275 137 -384 247 -38 38 -73 70 -76
70 -4 0 -17 -16 -29 -36 -35 -56 -30 -120 15 -210 21 -41 36 -76 34 -78 -5 -5
-216 65 -244 81 -11 6 -29 21 -39 32 -56 62 -44 -30 21 -164 40 -83 48 -108
47 -155 0 -83 -29 -129 -168 -265 -139 -137 -172 -176 -214 -260 -41 -81 -50
-119 -62 -265 -11 -126 -17 -153 -64 -314 -14 -48 -26 -109 -26 -135 0 -43 4
-50 53 -98 129 -125 237 -192 349 -217 100 -22 662 -30 753 -11 140 30 269 9
424 -68 l86 -42 -2 -70 c-2 -87 -30 -225 -83 -415 -36 -129 -42 -164 -50 -315
-12 -202 -28 -263 -101 -390 -145 -253 -293 -418 -847 -944 -567 -537 -602
-570 -655 -600 -29 -16 -101 -44 -162 -62 -60 -17 -129 -43 -152 -56 -53 -31
-113 -96 -137 -150 -24 -55 -13 -84 66 -169 113 -120 209 -160 362 -151 228
13 450 146 861 518 322 290 354 313 682 492 323 176 366 207 663 472 278 248
450 364 615 414 38 12 144 35 235 51 220 39 294 61 424 126 68 33 122 54 144
54 49 0 224 -37 312 -66 85 -28 319 -153 392 -208 137 -104 271 -333 399 -683
59 -161 212 -670 205 -681 -3 -5 -44 -32 -93 -62 -100 -61 -184 -136 -207
-185 -35 -72 -11 -174 53 -228 42 -35 130 -61 183 -54 24 3 86 15 138 27 52
11 127 25 165 31 134 20 239 113 284 252 79 240 48 601 -89 1038 -118 375
-156 582 -147 794 6 124 21 220 40 243 6 7 20 11 31 8 120 -30 314 -50 696
-71 320 -18 430 -32 670 -80 299 -61 448 -84 633 -100 208 -19 302 -40 412
-95 103 -51 180 -110 335 -255 69 -65 196 -183 282 -262 165 -150 260 -251
309 -324 42 -63 40 -113 -7 -176 -52 -69 -134 -151 -259 -261 -60 -52 -141
-126 -180 -163 -94 -92 -122 -102 -245 -94 -86 7 -102 5 -146 -14 -135 -60
-223 -223 -180 -334 45 -117 139 -139 518 -118 139 8 232 18 285 31 100 26
293 122 405 202 254 184 553 496 798 833 l72 100 -5 71 c-7 96 -37 166 -131
307 -42 64 -86 141 -97 172 -44 126 -45 267 -3 454 27 119 14 119 230 13 l189
-91 285 -70 c518 -128 695 -184 855 -270 182 -98 278 -203 455 -495 152 -250
270 -516 309 -694 22 -100 40 -143 80 -185 43 -48 98 -70 183 -75 64 -4 84 -1
122 17 84 41 135 121 176 276 28 105 24 174 -13 213 -24 25 -27 36 -27 96 0
146 -61 305 -238 615 -90 160 -120 228 -192 436 -71 206 -108 291 -178 408
-69 115 -100 179 -116 238 l-13 52 -106 47 c-196 87 -393 221 -555 375 -156
148 -247 266 -320 411 -52 101 -68 153 -136 413 -108 415 -148 502 -342 751
-75 96 -157 206 -182 243 l-46 69 23 66 c55 154 157 319 299 483 138 159 240
254 572 530 317 263 485 468 621 754 115 242 158 430 166 716 7 263 -11 410
-93 759 -36 151 -38 306 -7 392 28 76 79 151 171 250 91 98 156 193 211 309
97 203 89 314 -25 365 -64 28 -92 28 -234 2z"/>
</g>
</svg>
